<?xml version="1.0" encoding="utf-8"?>
<!-- Generator: Adobe Illustrator 23.0.3, SVG Export Plug-In . SVG Version: 6.00 Build 0)  -->
<svg version="1.1" id="Layer_1" xmlns="http://www.w3.org/2000/svg" xmlns:xlink="http://www.w3.org/1999/xlink" x="0px" y="0px"
	 viewBox="0 0 512 512" style="enable-background:new 0 0 512 512;" xml:space="preserve">
<style type="text/css">
	.st0{fill:#E9EEF2;}
</style>
<g id="Page-1">
	<g>
		<path id="Shape" class="st0" d="M256,44.1C139,44.1,44.1,139,44.1,256S139,467.9,256,467.9S467.9,373,467.9,256
			C467.7,139,373,44.3,256,44.1z M326.6,167.7H211.9v70.6h61.8c14.6,0,26.5,11.9,26.5,26.5c0,14.6-11.9,26.5-26.5,26.5h-61.8v79.4
			c0,14.6-11.9,26.5-26.5,26.5c-14.6,0-26.5-11.9-26.5-26.5V141.2c0-14.6,11.9-26.5,26.5-26.5h141.2c14.6,0,26.5,11.9,26.5,26.5
			S341.2,167.7,326.6,167.7z"/>
		<path class="st0" d="M256,0C114.6,0,0,114.6,0,256s114.6,256,256,256s256-114.6,256-256S397.4,0,256,0z M256,485.5
			C129.2,485.5,26.5,382.8,26.5,256S129.2,26.5,256,26.5S485.5,129.2,485.5,256C485.4,382.7,382.7,485.4,256,485.5z"/>
	</g>
</g>
</svg>
